<?xml version="1.0" encoding="UTF-8"?>
<svg width="860px" height="1400px" viewBox="0 0 860 1400" version="1.1" xmlns="http://www.w3.org/2000/svg" xmlns:xlink="http://www.w3.org/1999/xlink">
    <g stroke="none" stroke-width="1" fill="none" fill-rule="evenodd">
        <g fill-rule="nonzero">
            <path d="M430.658448,0.000856735443 C665.657039,0.465364624 856.236457,189.444078 859.569591,423.547268 L859.613133,430.654969 L695.427899,430.330656 C695.717667,283.633803 577.02945,164.476055 430.334024,164.186091 C283.635844,163.89632 164.475859,282.586095 164.186089,429.283842 C163.89736,575.454524 281.789277,696.977165 425.572492,699.672356 L429.937389,699.71756 L429.936,700.235 L434.344859,700.279364 C578.128074,702.974555 696.01999,824.497196 695.731261,970.667879 C695.441492,1117.36562 576.281507,1236.0554 429.583327,1235.76563 C284.354855,1235.47856 166.576249,1118.68919 164.516361,974.013617 L164.490791,969.787159 L329.664063,970.11376 C329.554542,1025.50746 374.371697,1070.5022 429.763385,1070.61304 C485.160663,1070.72104 530.153432,1025.90503 530.262954,970.510659 C530.375121,913.726055 483.897881,864.946219 431.121092,863.873888 L429.613,863.857 L429.613076,863.902794 C192.653633,863.434732 -0.468876656,666.763901 0.000855084557,428.959529 C0.469737652,191.584662 193.283275,-0.468026824 430.658448,0.000856735443 Z" fill="#1890ff"></path>
            <path d="M430.334024,164.186091 C575.562496,164.473155 693.341102,281.262535 695.400989,425.938104 L695.42656,430.164561 L530.253288,429.83796 C530.362809,374.444263 485.545654,329.449523 430.153966,329.33868 C374.756688,329.230683 329.763919,374.046694 329.654396,429.441062 C329.54223,486.225665 376.01947,535.005501 428.796259,536.077833 L430.397442,536.095684 L430.397362,536.097561 L437.398902,536.169954 C671.105953,540.502798 860.380675,735.614143 859.91564,971.040471 C859.446758,1208.41534 666.63322,1400.46803 429.258048,1399.99914 C194.259457,1399.53464 3.68003851,1210.55592 0.346904818,976.452732 L0.303362409,969.345031 L164.488597,969.669344 C164.198829,1116.3662 282.887046,1235.52394 429.582472,1235.81391 C576.280652,1236.10368 695.440637,1117.4139 695.730406,970.716158 C696.019135,824.545476 578.127219,703.022835 434.344004,700.327644 L429.979107,700.28244 L429.979362,699.715561 L425.572492,699.672356 C281.789277,696.977165 163.89736,575.454524 164.186089,429.283842 C164.475859,282.586095 283.635844,163.89632 430.334024,164.186091 Z" fill="#35485E"></path>
        </g>
    </g>
</svg>